<?xml version="1.0" encoding="utf-8"?>
<svg width="90px" height="90px" viewBox="0 0 90 90" version="1.1" xmlns:xlink="http://www.w3.org/1999/xlink" xmlns="http://www.w3.org/2000/svg">
  <defs>
    <path d="M90 0L90 0L90 90L0 90L0 0L90 0Z" id="path_1" />
    <clipPath id="clip_1">
      <use xlink:href="#path_1" clip-rule="evenodd" fill-rule="evenodd" />
    </clipPath>
  </defs>
  <g id="Javascript" clip-path="url(#clip_1)">
    <path d="M90 0L90 0L90 90L0 90L0 0L90 0Z" id="Javascript" fill="none" stroke="none" />
    <path d="M16.875 85.7812C16.875 83.4513 29.467 81.5625 45 81.5625C60.533 81.5625 73.125 83.4513 73.125 85.7812C73.125 88.1112 60.533 90 45 90C29.467 90 16.875 88.1112 16.875 85.7812Z" id="Oval" fill="#000000" fill-opacity="0.3" fill-rule="evenodd" stroke="none" />
    <path d="M75.9375 28.125L75.9375 61.875C75.9375 65.0391 74.8969 67.95 73.125 70.2984L73.125 70.3125C70.7484 73.4625 67.0922 75.5859 62.9297 75.8953C62.5922 75.9234 62.2266 75.9375 61.875 75.9375L28.125 75.9375C20.3625 75.9375 14.0625 69.6375 14.0625 61.875L14.0625 28.125C14.0625 27.7734 14.0766 27.4078 14.1047 27.0703C14.4141 22.9078 16.5375 19.2516 19.6875 16.875L19.7016 16.875C22.05 15.1031 24.9609 14.0625 28.125 14.0625L61.875 14.0625C69.6375 14.0625 75.9375 20.3625 75.9375 28.125L75.9375 28.125Z" id="Shape" fill="#FFCE29" stroke="none" />
    <path d="M19.7016 16.875L19.6875 16.875C16.5375 19.2516 14.4141 22.9078 14.1047 27.0703C14.0766 27.4078 14.0625 27.7734 14.0625 28.125L14.0625 45C17.9452 45 21.0938 41.8514 21.0938 37.9688L21.0938 28.125C21.0938 27.9731 21.098 27.8142 21.1177 27.5906C21.2611 25.657 22.2117 23.8641 23.7361 22.6336C23.8036 22.5872 23.8697 22.538 23.9358 22.4888C25.1452 21.5761 26.5936 21.0938 28.125 21.0938L36.5625 21.0938C40.4452 21.0938 43.5938 17.9452 43.5938 14.0625L28.125 14.0625C24.9609 14.0625 22.05 15.1031 19.7016 16.875L19.7016 16.875Z" id="Shape" fill="#FFFFFF" fill-opacity="0.3" stroke="none" />
    <path d="M75.9375 61.875L75.9375 39.375C72.0548 39.375 68.9062 42.5222 68.9062 46.4062L68.9062 61.875C68.9062 65.752 65.752 68.9062 61.875 68.9062L46.4062 68.9062C42.5236 68.9062 39.375 72.0534 39.375 75.9375L61.875 75.9375C69.6417 75.9375 75.9375 69.6417 75.9375 61.875L75.9375 61.875Z" id="Shape" fill="#000000" fill-opacity="0.15" stroke="none" />
    <path d="M18.9844 33.0469L18.9844 28.1251C18.9844 27.9099 18.9914 27.6863 19.0097 27.4796C19.1995 24.9357 20.4202 22.614 22.3791 21.0193L22.6659 20.8055" id="Shape" fill="none" stroke="#FFFFFF" stroke-width="3" stroke-linecap="round" stroke-linejoin="round" />
    <path d="M39.9951 66.8889C39.3581 66.9072 38.8603 66.7399 38.5031 66.3827C38.1473 66.0269 37.9688 65.5671 37.9688 65.0032C37.9688 64.5729 38.0953 64.196 38.3498 63.8755C38.6015 63.5562 38.9728 63.3805 39.4621 63.3411L40.2777 63.2835C41.781 63.192 42.5305 62.4004 42.5305 60.9182L42.5305 48.7799C42.5305 48.067 42.7189 47.5171 43.0943 47.1318C43.4698 46.7465 44.0042 46.5539 44.7016 46.5539C46.1641 46.5539 46.8967 47.2964 46.8967 48.7799L46.8967 60.8634C46.8967 64.5997 44.9252 66.5894 40.9808 66.8341L39.9951 66.8889L39.9951 66.8889ZM57.9645 66.9747C56.7635 66.9747 55.5597 66.8439 54.3587 66.581C53.1578 66.3194 52.1142 65.9341 51.2325 65.4264C50.708 65.1451 50.3775 64.7668 50.2467 64.2873C50.1159 63.8077 50.144 63.3422 50.3311 62.8908C50.5195 62.4422 50.8191 62.123 51.2325 61.9345C51.6445 61.7461 52.1424 61.7925 52.7246 62.0738C53.477 62.5069 54.3137 62.8261 55.232 63.0314C56.1518 63.2382 57.0631 63.3408 57.9645 63.3408C59.3174 63.3408 60.2891 63.1299 60.8798 62.708C61.4718 62.2833 61.7671 61.7545 61.7671 61.1147C61.7671 60.5718 61.5604 60.1387 61.1484 59.8195C60.7335 59.5002 60.0121 59.2274 58.977 59.0038L55.796 58.3274C52.2479 57.575 50.4717 55.7356 50.4717 52.8062C50.4717 51.5504 50.8106 50.445 51.4871 49.4958C52.1635 48.5493 53.1057 47.8111 54.3179 47.2865C55.5288 46.762 56.9309 46.4976 58.5285 46.4976C59.5789 46.4976 60.6126 46.6241 61.6251 46.8787C62.6405 47.1304 63.5321 47.5017 64.3027 47.9911C64.771 48.2723 65.0635 48.6394 65.176 49.0894C65.2885 49.5408 65.2562 49.9725 65.0776 50.3874C64.899 50.7995 64.598 51.0906 64.1761 51.2579C63.7514 51.428 63.2311 51.3634 62.6123 51.061C61.9907 50.7418 61.3326 50.5083 60.6393 50.3579C59.9446 50.2088 59.2316 50.1329 58.4989 50.1329C57.3162 50.1329 56.4021 50.3621 55.7524 50.8234C55.1055 51.2846 54.7806 51.8795 54.7806 52.6107C54.7806 53.1564 54.9775 53.5966 55.3741 53.9355C55.7679 54.273 56.4541 54.5458 57.4301 54.7512L60.6112 55.4276C64.2535 56.2165 66.076 58.0011 66.076 60.78C66.076 62.0175 65.7414 63.1046 65.0762 64.0327C64.4096 64.9637 63.4688 65.6851 62.2594 66.2012C61.0499 66.716 59.6183 66.9747 57.9645 66.9747L57.9645 66.9747Z" id="Group" fill="#9C34C2" fill-rule="evenodd" stroke="none" />
  </g>
</svg>